<svg width="28" height="28" viewBox="0 0 28 28" fill="none" xmlns="http://www.w3.org/2000/svg">
<rect width="28" height="28" rx="14" fill="#31CEA8" fill-opacity="0.2"/>
<path d="M18.6667 24.5V22.1667C18.6667 20.929 18.175 19.742 17.2999 18.8668C16.4247 17.9917 15.2377 17.5 14 17.5H5.83335C4.59568 17.5 3.40869 17.9917 2.53352 18.8668C1.65835 19.742 1.16669 20.929 1.16669 22.1667V24.5M23.3334 9.33333V16.3333M26.8334 12.8333H19.8334M14.5834 8.16667C14.5834 10.744 12.494 12.8333 9.91669 12.8333C7.33936 12.8333 5.25002 10.744 5.25002 8.16667C5.25002 5.58934 7.33936 3.5 9.91669 3.5C12.494 3.5 14.5834 5.58934 14.5834 8.16667Z" stroke="#31CEA8" stroke-width="2" stroke-linecap="round" stroke-linejoin="round"/>
</svg>
