<svg width="28" height="28" viewBox="0 0 28 28" fill="none" xmlns="http://www.w3.org/2000/svg">
<rect width="28" height="28" rx="14" fill="#8020A1" fill-opacity="0.23"/>
<path d="M3.5 7.00004L7 2.33337H21L24.5 7.00004M3.5 7.00004V23.3334C3.5 23.9522 3.74583 24.5457 4.18342 24.9833C4.621 25.4209 5.21449 25.6667 5.83333 25.6667H22.1667C22.7855 25.6667 23.379 25.4209 23.8166 24.9833C24.2542 24.5457 24.5 23.9522 24.5 23.3334V7.00004M3.5 7.00004H24.5M18.6667 11.6667C18.6667 12.9044 18.175 14.0914 17.2998 14.9665C16.4247 15.8417 15.2377 16.3334 14 16.3334C12.7623 16.3334 11.5753 15.8417 10.7002 14.9665C9.825 14.0914 9.33333 12.9044 9.33333 11.6667" stroke="#B244C3" stroke-width="2" stroke-linecap="round" stroke-linejoin="round"/>
</svg>
