<svg width="19" height="15" viewBox="0 0 19 15" fill="none" xmlns="http://www.w3.org/2000/svg">
<path d="M13.4583 14.625V13.0417C13.4583 12.2018 13.1247 11.3964 12.5308 10.8025C11.937 10.2086 11.1315 9.875 10.2917 9.875H3.95832C3.11847 9.875 2.31302 10.2086 1.71915 10.8025C1.12529 11.3964 0.791656 12.2018 0.791656 13.0417V14.625M18.2083 14.625V13.0417C18.2078 12.34 17.9743 11.6584 17.5444 11.1039C17.1145 10.5494 16.5127 10.1533 15.8333 9.97792M12.6667 0.477917C13.3478 0.652322 13.9516 1.04847 14.3827 1.60391C14.8138 2.15935 15.0479 2.84249 15.0479 3.54563C15.0479 4.24876 14.8138 4.9319 14.3827 5.48734C13.9516 6.04278 13.3478 6.43893 12.6667 6.61333M10.2917 3.54167C10.2917 5.29057 8.87389 6.70833 7.12499 6.70833C5.37609 6.70833 3.95832 5.29057 3.95832 3.54167C3.95832 1.79276 5.37609 0.375 7.12499 0.375C8.87389 0.375 10.2917 1.79276 10.2917 3.54167Z" stroke="#F0CFCA" stroke-width="2" stroke-linecap="round" stroke-linejoin="round"/>
</svg>
