<svg width="20" height="19" viewBox="0 0 20 19" fill="none" xmlns="http://www.w3.org/2000/svg">
<path d="M0.833344 0.833344H4.16668L6.40001 11.9917C6.47621 12.3753 6.68493 12.72 6.98963 12.9653C7.29433 13.2105 7.67559 13.3408 8.06668 13.3333H16.1667C16.5578 13.3408 16.939 13.2105 17.2437 12.9653C17.5484 12.72 17.7571 12.3753 17.8333 11.9917L19.1667 5.00001H5.00001M8.33334 17.5C8.33334 17.9602 7.96025 18.3333 7.50001 18.3333C7.03977 18.3333 6.66668 17.9602 6.66668 17.5C6.66668 17.0398 7.03977 16.6667 7.50001 16.6667C7.96025 16.6667 8.33334 17.0398 8.33334 17.5ZM17.5 17.5C17.5 17.9602 17.1269 18.3333 16.6667 18.3333C16.2064 18.3333 15.8333 17.9602 15.8333 17.5C15.8333 17.0398 16.2064 16.6667 16.6667 16.6667C17.1269 16.6667 17.5 17.0398 17.5 17.5Z" stroke="#77797B" stroke-width="2" stroke-linecap="round" stroke-linejoin="round"/>
</svg>
