<svg width="28" height="28" viewBox="0 0 28 28" fill="none" xmlns="http://www.w3.org/2000/svg">
<rect width="28" height="28" rx="14" fill="#E27868" fill-opacity="0.16"/>
<path d="M23.3334 24.5V22.1667C23.3334 20.929 22.8417 19.742 21.9665 18.8668C21.0913 17.9917 19.9044 17.5 18.6667 17.5H9.33335C8.09568 17.5 6.90869 17.9917 6.03352 18.8668C5.15835 19.742 4.66669 20.929 4.66669 22.1667V24.5M18.6667 8.16667C18.6667 10.744 16.5773 12.8333 14 12.8333C11.4227 12.8333 9.33335 10.744 9.33335 8.16667C9.33335 5.58934 11.4227 3.5 14 3.5C16.5773 3.5 18.6667 5.58934 18.6667 8.16667Z" stroke="#F78B7B" stroke-width="2" stroke-linecap="round" stroke-linejoin="round"/>
</svg>
